<mxfile host="app.diagrams.net" agent="Mozilla/5.0 (Windows NT 10.0; Win64; x64) AppleWebKit/537.36 (KHTML, like Gecko) Chrome/130.0.0.0 Safari/537.36 Edg/130.0.0.0" version="24.8.3">
  <diagram name="Page-1" id="q9QHCDZXpgdtD_MFkQNd">
    <mxGraphModel grid="1" page="1" gridSize="10" guides="1" tooltips="1" connect="1" arrows="1" fold="1" pageScale="1" pageWidth="850" pageHeight="1100" math="0" shadow="0">
      <root>
        <mxCell id="0" />
        <mxCell id="1" parent="0" />
        <mxCell id="9bxFDCF_LwELI03r26Da-1" value="andares" style="shape=table;startSize=25;container=1;collapsible=0;childLayout=tableLayout;fixedRows=1;rowLines=1;fontStyle=1;align=center;resizeLast=1;" vertex="1" parent="1">
          <mxGeometry x="263" y="254" width="141" height="179" as="geometry" />
        </mxCell>
        <mxCell id="9bxFDCF_LwELI03r26Da-2" style="shape=tableRow;horizontal=0;startSize=0;swimlaneHead=0;swimlaneBody=0;fillColor=none;collapsible=0;dropTarget=0;points=[[0,0.5],[1,0.5]];portConstraint=eastwest;top=0;left=0;right=0;bottom=0;" vertex="1" parent="9bxFDCF_LwELI03r26Da-1">
          <mxGeometry y="25" width="141" height="22" as="geometry" />
        </mxCell>
        <mxCell id="9bxFDCF_LwELI03r26Da-3" value="integer" style="shape=partialRectangle;connectable=0;fillColor=none;top=0;left=0;bottom=0;right=0;align=left;spacingLeft=2;overflow=hidden;fontSize=11;" vertex="1" parent="9bxFDCF_LwELI03r26Da-2">
          <mxGeometry width="42" height="22" as="geometry">
            <mxRectangle width="42" height="22" as="alternateBounds" />
          </mxGeometry>
        </mxCell>
        <mxCell id="9bxFDCF_LwELI03r26Da-4" value="id" style="shape=partialRectangle;connectable=0;fillColor=none;top=0;left=0;bottom=0;right=0;align=left;spacingLeft=2;overflow=hidden;fontSize=11;" vertex="1" parent="9bxFDCF_LwELI03r26Da-2">
          <mxGeometry x="42" width="99" height="22" as="geometry">
            <mxRectangle width="99" height="22" as="alternateBounds" />
          </mxGeometry>
        </mxCell>
        <mxCell id="9bxFDCF_LwELI03r26Da-5" style="shape=tableRow;horizontal=0;startSize=0;swimlaneHead=0;swimlaneBody=0;fillColor=none;collapsible=0;dropTarget=0;points=[[0,0.5],[1,0.5]];portConstraint=eastwest;top=0;left=0;right=0;bottom=0;" vertex="1" parent="9bxFDCF_LwELI03r26Da-1">
          <mxGeometry y="47" width="141" height="22" as="geometry" />
        </mxCell>
        <mxCell id="9bxFDCF_LwELI03r26Da-6" value="integer" style="shape=partialRectangle;connectable=0;fillColor=none;top=0;left=0;bottom=0;right=0;align=left;spacingLeft=2;overflow=hidden;fontSize=11;" vertex="1" parent="9bxFDCF_LwELI03r26Da-5">
          <mxGeometry width="42" height="22" as="geometry">
            <mxRectangle width="42" height="22" as="alternateBounds" />
          </mxGeometry>
        </mxCell>
        <mxCell id="9bxFDCF_LwELI03r26Da-7" value="bloco_id" style="shape=partialRectangle;connectable=0;fillColor=none;top=0;left=0;bottom=0;right=0;align=left;spacingLeft=2;overflow=hidden;fontSize=11;" vertex="1" parent="9bxFDCF_LwELI03r26Da-5">
          <mxGeometry x="42" width="99" height="22" as="geometry">
            <mxRectangle width="99" height="22" as="alternateBounds" />
          </mxGeometry>
        </mxCell>
        <mxCell id="9bxFDCF_LwELI03r26Da-8" style="shape=tableRow;horizontal=0;startSize=0;swimlaneHead=0;swimlaneBody=0;fillColor=none;collapsible=0;dropTarget=0;points=[[0,0.5],[1,0.5]];portConstraint=eastwest;top=0;left=0;right=0;bottom=0;" vertex="1" parent="9bxFDCF_LwELI03r26Da-1">
          <mxGeometry y="69" width="141" height="22" as="geometry" />
        </mxCell>
        <mxCell id="9bxFDCF_LwELI03r26Da-9" value="integer" style="shape=partialRectangle;connectable=0;fillColor=none;top=0;left=0;bottom=0;right=0;align=left;spacingLeft=2;overflow=hidden;fontSize=11;" vertex="1" parent="9bxFDCF_LwELI03r26Da-8">
          <mxGeometry width="42" height="22" as="geometry">
            <mxRectangle width="42" height="22" as="alternateBounds" />
          </mxGeometry>
        </mxCell>
        <mxCell id="9bxFDCF_LwELI03r26Da-10" value="numero" style="shape=partialRectangle;connectable=0;fillColor=none;top=0;left=0;bottom=0;right=0;align=left;spacingLeft=2;overflow=hidden;fontSize=11;" vertex="1" parent="9bxFDCF_LwELI03r26Da-8">
          <mxGeometry x="42" width="99" height="22" as="geometry">
            <mxRectangle width="99" height="22" as="alternateBounds" />
          </mxGeometry>
        </mxCell>
        <mxCell id="9bxFDCF_LwELI03r26Da-11" style="shape=tableRow;horizontal=0;startSize=0;swimlaneHead=0;swimlaneBody=0;fillColor=none;collapsible=0;dropTarget=0;points=[[0,0.5],[1,0.5]];portConstraint=eastwest;top=0;left=0;right=0;bottom=0;" vertex="1" parent="9bxFDCF_LwELI03r26Da-1">
          <mxGeometry y="91" width="141" height="22" as="geometry" />
        </mxCell>
        <mxCell id="9bxFDCF_LwELI03r26Da-12" value="varchar" style="shape=partialRectangle;connectable=0;fillColor=none;top=0;left=0;bottom=0;right=0;align=left;spacingLeft=2;overflow=hidden;fontSize=11;" vertex="1" parent="9bxFDCF_LwELI03r26Da-11">
          <mxGeometry width="42" height="22" as="geometry">
            <mxRectangle width="42" height="22" as="alternateBounds" />
          </mxGeometry>
        </mxCell>
        <mxCell id="9bxFDCF_LwELI03r26Da-13" value="nome" style="shape=partialRectangle;connectable=0;fillColor=none;top=0;left=0;bottom=0;right=0;align=left;spacingLeft=2;overflow=hidden;fontSize=11;" vertex="1" parent="9bxFDCF_LwELI03r26Da-11">
          <mxGeometry x="42" width="99" height="22" as="geometry">
            <mxRectangle width="99" height="22" as="alternateBounds" />
          </mxGeometry>
        </mxCell>
        <mxCell id="9bxFDCF_LwELI03r26Da-14" style="shape=tableRow;horizontal=0;startSize=0;swimlaneHead=0;swimlaneBody=0;fillColor=none;collapsible=0;dropTarget=0;points=[[0,0.5],[1,0.5]];portConstraint=eastwest;top=0;left=0;right=0;bottom=0;" vertex="1" parent="9bxFDCF_LwELI03r26Da-1">
          <mxGeometry y="113" width="141" height="22" as="geometry" />
        </mxCell>
        <mxCell id="9bxFDCF_LwELI03r26Da-15" value="numeric" style="shape=partialRectangle;connectable=0;fillColor=none;top=0;left=0;bottom=0;right=0;align=left;spacingLeft=2;overflow=hidden;fontSize=11;" vertex="1" parent="9bxFDCF_LwELI03r26Da-14">
          <mxGeometry width="42" height="22" as="geometry">
            <mxRectangle width="42" height="22" as="alternateBounds" />
          </mxGeometry>
        </mxCell>
        <mxCell id="9bxFDCF_LwELI03r26Da-16" value="altitude" style="shape=partialRectangle;connectable=0;fillColor=none;top=0;left=0;bottom=0;right=0;align=left;spacingLeft=2;overflow=hidden;fontSize=11;" vertex="1" parent="9bxFDCF_LwELI03r26Da-14">
          <mxGeometry x="42" width="99" height="22" as="geometry">
            <mxRectangle width="99" height="22" as="alternateBounds" />
          </mxGeometry>
        </mxCell>
        <mxCell id="9bxFDCF_LwELI03r26Da-17" style="shape=tableRow;horizontal=0;startSize=0;swimlaneHead=0;swimlaneBody=0;fillColor=none;collapsible=0;dropTarget=0;points=[[0,0.5],[1,0.5]];portConstraint=eastwest;top=0;left=0;right=0;bottom=0;" vertex="1" parent="9bxFDCF_LwELI03r26Da-1">
          <mxGeometry y="135" width="141" height="22" as="geometry" />
        </mxCell>
        <mxCell id="9bxFDCF_LwELI03r26Da-18" value="numeric" style="shape=partialRectangle;connectable=0;fillColor=none;top=0;left=0;bottom=0;right=0;align=left;spacingLeft=2;overflow=hidden;fontSize=11;" vertex="1" parent="9bxFDCF_LwELI03r26Da-17">
          <mxGeometry width="42" height="22" as="geometry">
            <mxRectangle width="42" height="22" as="alternateBounds" />
          </mxGeometry>
        </mxCell>
        <mxCell id="9bxFDCF_LwELI03r26Da-19" value="altitude_min" style="shape=partialRectangle;connectable=0;fillColor=none;top=0;left=0;bottom=0;right=0;align=left;spacingLeft=2;overflow=hidden;fontSize=11;" vertex="1" parent="9bxFDCF_LwELI03r26Da-17">
          <mxGeometry x="42" width="99" height="22" as="geometry">
            <mxRectangle width="99" height="22" as="alternateBounds" />
          </mxGeometry>
        </mxCell>
        <mxCell id="9bxFDCF_LwELI03r26Da-20" style="shape=tableRow;horizontal=0;startSize=0;swimlaneHead=0;swimlaneBody=0;fillColor=none;collapsible=0;dropTarget=0;points=[[0,0.5],[1,0.5]];portConstraint=eastwest;top=0;left=0;right=0;bottom=0;" vertex="1" parent="9bxFDCF_LwELI03r26Da-1">
          <mxGeometry y="157" width="141" height="22" as="geometry" />
        </mxCell>
        <mxCell id="9bxFDCF_LwELI03r26Da-21" value="numeric" style="shape=partialRectangle;connectable=0;fillColor=none;top=0;left=0;bottom=0;right=0;align=left;spacingLeft=2;overflow=hidden;fontSize=11;" vertex="1" parent="9bxFDCF_LwELI03r26Da-20">
          <mxGeometry width="42" height="22" as="geometry">
            <mxRectangle width="42" height="22" as="alternateBounds" />
          </mxGeometry>
        </mxCell>
        <mxCell id="9bxFDCF_LwELI03r26Da-22" value="altitude_max" style="shape=partialRectangle;connectable=0;fillColor=none;top=0;left=0;bottom=0;right=0;align=left;spacingLeft=2;overflow=hidden;fontSize=11;" vertex="1" parent="9bxFDCF_LwELI03r26Da-20">
          <mxGeometry x="42" width="99" height="22" as="geometry">
            <mxRectangle width="99" height="22" as="alternateBounds" />
          </mxGeometry>
        </mxCell>
        <mxCell id="9bxFDCF_LwELI03r26Da-23" value="blocos" style="shape=table;startSize=25;container=1;collapsible=0;childLayout=tableLayout;fixedRows=1;rowLines=1;fontStyle=1;align=center;resizeLast=1;" vertex="1" parent="1">
          <mxGeometry x="187" y="20" width="123" height="135" as="geometry" />
        </mxCell>
        <mxCell id="9bxFDCF_LwELI03r26Da-24" style="shape=tableRow;horizontal=0;startSize=0;swimlaneHead=0;swimlaneBody=0;fillColor=none;collapsible=0;dropTarget=0;points=[[0,0.5],[1,0.5]];portConstraint=eastwest;top=0;left=0;right=0;bottom=0;" vertex="1" parent="9bxFDCF_LwELI03r26Da-23">
          <mxGeometry y="25" width="123" height="22" as="geometry" />
        </mxCell>
        <mxCell id="9bxFDCF_LwELI03r26Da-25" value="integer" style="shape=partialRectangle;connectable=0;fillColor=none;top=0;left=0;bottom=0;right=0;align=left;spacingLeft=2;overflow=hidden;fontSize=11;" vertex="1" parent="9bxFDCF_LwELI03r26Da-24">
          <mxGeometry width="42" height="22" as="geometry">
            <mxRectangle width="42" height="22" as="alternateBounds" />
          </mxGeometry>
        </mxCell>
        <mxCell id="9bxFDCF_LwELI03r26Da-26" value="id" style="shape=partialRectangle;connectable=0;fillColor=none;top=0;left=0;bottom=0;right=0;align=left;spacingLeft=2;overflow=hidden;fontSize=11;" vertex="1" parent="9bxFDCF_LwELI03r26Da-24">
          <mxGeometry x="42" width="81" height="22" as="geometry">
            <mxRectangle width="81" height="22" as="alternateBounds" />
          </mxGeometry>
        </mxCell>
        <mxCell id="9bxFDCF_LwELI03r26Da-27" style="shape=tableRow;horizontal=0;startSize=0;swimlaneHead=0;swimlaneBody=0;fillColor=none;collapsible=0;dropTarget=0;points=[[0,0.5],[1,0.5]];portConstraint=eastwest;top=0;left=0;right=0;bottom=0;" vertex="1" parent="9bxFDCF_LwELI03r26Da-23">
          <mxGeometry y="47" width="123" height="22" as="geometry" />
        </mxCell>
        <mxCell id="9bxFDCF_LwELI03r26Da-28" value="varchar" style="shape=partialRectangle;connectable=0;fillColor=none;top=0;left=0;bottom=0;right=0;align=left;spacingLeft=2;overflow=hidden;fontSize=11;" vertex="1" parent="9bxFDCF_LwELI03r26Da-27">
          <mxGeometry width="42" height="22" as="geometry">
            <mxRectangle width="42" height="22" as="alternateBounds" />
          </mxGeometry>
        </mxCell>
        <mxCell id="9bxFDCF_LwELI03r26Da-29" value="nome" style="shape=partialRectangle;connectable=0;fillColor=none;top=0;left=0;bottom=0;right=0;align=left;spacingLeft=2;overflow=hidden;fontSize=11;" vertex="1" parent="9bxFDCF_LwELI03r26Da-27">
          <mxGeometry x="42" width="81" height="22" as="geometry">
            <mxRectangle width="81" height="22" as="alternateBounds" />
          </mxGeometry>
        </mxCell>
        <mxCell id="9bxFDCF_LwELI03r26Da-30" style="shape=tableRow;horizontal=0;startSize=0;swimlaneHead=0;swimlaneBody=0;fillColor=none;collapsible=0;dropTarget=0;points=[[0,0.5],[1,0.5]];portConstraint=eastwest;top=0;left=0;right=0;bottom=0;" vertex="1" parent="9bxFDCF_LwELI03r26Da-23">
          <mxGeometry y="69" width="123" height="22" as="geometry" />
        </mxCell>
        <mxCell id="9bxFDCF_LwELI03r26Da-31" value="text" style="shape=partialRectangle;connectable=0;fillColor=none;top=0;left=0;bottom=0;right=0;align=left;spacingLeft=2;overflow=hidden;fontSize=11;" vertex="1" parent="9bxFDCF_LwELI03r26Da-30">
          <mxGeometry width="42" height="22" as="geometry">
            <mxRectangle width="42" height="22" as="alternateBounds" />
          </mxGeometry>
        </mxCell>
        <mxCell id="9bxFDCF_LwELI03r26Da-32" value="descricao" style="shape=partialRectangle;connectable=0;fillColor=none;top=0;left=0;bottom=0;right=0;align=left;spacingLeft=2;overflow=hidden;fontSize=11;" vertex="1" parent="9bxFDCF_LwELI03r26Da-30">
          <mxGeometry x="42" width="81" height="22" as="geometry">
            <mxRectangle width="81" height="22" as="alternateBounds" />
          </mxGeometry>
        </mxCell>
        <mxCell id="9bxFDCF_LwELI03r26Da-33" style="shape=tableRow;horizontal=0;startSize=0;swimlaneHead=0;swimlaneBody=0;fillColor=none;collapsible=0;dropTarget=0;points=[[0,0.5],[1,0.5]];portConstraint=eastwest;top=0;left=0;right=0;bottom=0;" vertex="1" parent="9bxFDCF_LwELI03r26Da-23">
          <mxGeometry y="91" width="123" height="22" as="geometry" />
        </mxCell>
        <mxCell id="9bxFDCF_LwELI03r26Da-34" value="numeric" style="shape=partialRectangle;connectable=0;fillColor=none;top=0;left=0;bottom=0;right=0;align=left;spacingLeft=2;overflow=hidden;fontSize=11;" vertex="1" parent="9bxFDCF_LwELI03r26Da-33">
          <mxGeometry width="42" height="22" as="geometry">
            <mxRectangle width="42" height="22" as="alternateBounds" />
          </mxGeometry>
        </mxCell>
        <mxCell id="9bxFDCF_LwELI03r26Da-35" value="latitude" style="shape=partialRectangle;connectable=0;fillColor=none;top=0;left=0;bottom=0;right=0;align=left;spacingLeft=2;overflow=hidden;fontSize=11;" vertex="1" parent="9bxFDCF_LwELI03r26Da-33">
          <mxGeometry x="42" width="81" height="22" as="geometry">
            <mxRectangle width="81" height="22" as="alternateBounds" />
          </mxGeometry>
        </mxCell>
        <mxCell id="9bxFDCF_LwELI03r26Da-36" style="shape=tableRow;horizontal=0;startSize=0;swimlaneHead=0;swimlaneBody=0;fillColor=none;collapsible=0;dropTarget=0;points=[[0,0.5],[1,0.5]];portConstraint=eastwest;top=0;left=0;right=0;bottom=0;" vertex="1" parent="9bxFDCF_LwELI03r26Da-23">
          <mxGeometry y="113" width="123" height="22" as="geometry" />
        </mxCell>
        <mxCell id="9bxFDCF_LwELI03r26Da-37" value="numeric" style="shape=partialRectangle;connectable=0;fillColor=none;top=0;left=0;bottom=0;right=0;align=left;spacingLeft=2;overflow=hidden;fontSize=11;" vertex="1" parent="9bxFDCF_LwELI03r26Da-36">
          <mxGeometry width="42" height="22" as="geometry">
            <mxRectangle width="42" height="22" as="alternateBounds" />
          </mxGeometry>
        </mxCell>
        <mxCell id="9bxFDCF_LwELI03r26Da-38" value="longitude" style="shape=partialRectangle;connectable=0;fillColor=none;top=0;left=0;bottom=0;right=0;align=left;spacingLeft=2;overflow=hidden;fontSize=11;" vertex="1" parent="9bxFDCF_LwELI03r26Da-36">
          <mxGeometry x="42" width="81" height="22" as="geometry">
            <mxRectangle width="81" height="22" as="alternateBounds" />
          </mxGeometry>
        </mxCell>
        <mxCell id="9bxFDCF_LwELI03r26Da-39" value="conexoes" style="shape=table;startSize=25;container=1;collapsible=0;childLayout=tableLayout;fixedRows=1;rowLines=1;fontStyle=1;align=center;resizeLast=1;" vertex="1" parent="1">
          <mxGeometry x="299" y="834" width="175" height="113" as="geometry" />
        </mxCell>
        <mxCell id="9bxFDCF_LwELI03r26Da-40" style="shape=tableRow;horizontal=0;startSize=0;swimlaneHead=0;swimlaneBody=0;fillColor=none;collapsible=0;dropTarget=0;points=[[0,0.5],[1,0.5]];portConstraint=eastwest;top=0;left=0;right=0;bottom=0;" vertex="1" parent="9bxFDCF_LwELI03r26Da-39">
          <mxGeometry y="25" width="175" height="22" as="geometry" />
        </mxCell>
        <mxCell id="9bxFDCF_LwELI03r26Da-41" value="integer" style="shape=partialRectangle;connectable=0;fillColor=none;top=0;left=0;bottom=0;right=0;align=left;spacingLeft=2;overflow=hidden;fontSize=11;" vertex="1" parent="9bxFDCF_LwELI03r26Da-40">
          <mxGeometry width="42" height="22" as="geometry">
            <mxRectangle width="42" height="22" as="alternateBounds" />
          </mxGeometry>
        </mxCell>
        <mxCell id="9bxFDCF_LwELI03r26Da-42" value="id" style="shape=partialRectangle;connectable=0;fillColor=none;top=0;left=0;bottom=0;right=0;align=left;spacingLeft=2;overflow=hidden;fontSize=11;" vertex="1" parent="9bxFDCF_LwELI03r26Da-40">
          <mxGeometry x="42" width="133" height="22" as="geometry">
            <mxRectangle width="133" height="22" as="alternateBounds" />
          </mxGeometry>
        </mxCell>
        <mxCell id="9bxFDCF_LwELI03r26Da-43" style="shape=tableRow;horizontal=0;startSize=0;swimlaneHead=0;swimlaneBody=0;fillColor=none;collapsible=0;dropTarget=0;points=[[0,0.5],[1,0.5]];portConstraint=eastwest;top=0;left=0;right=0;bottom=0;" vertex="1" parent="9bxFDCF_LwELI03r26Da-39">
          <mxGeometry y="47" width="175" height="22" as="geometry" />
        </mxCell>
        <mxCell id="9bxFDCF_LwELI03r26Da-44" value="integer" style="shape=partialRectangle;connectable=0;fillColor=none;top=0;left=0;bottom=0;right=0;align=left;spacingLeft=2;overflow=hidden;fontSize=11;" vertex="1" parent="9bxFDCF_LwELI03r26Da-43">
          <mxGeometry width="42" height="22" as="geometry">
            <mxRectangle width="42" height="22" as="alternateBounds" />
          </mxGeometry>
        </mxCell>
        <mxCell id="9bxFDCF_LwELI03r26Da-45" value="waypoint_origem_id" style="shape=partialRectangle;connectable=0;fillColor=none;top=0;left=0;bottom=0;right=0;align=left;spacingLeft=2;overflow=hidden;fontSize=11;" vertex="1" parent="9bxFDCF_LwELI03r26Da-43">
          <mxGeometry x="42" width="133" height="22" as="geometry">
            <mxRectangle width="133" height="22" as="alternateBounds" />
          </mxGeometry>
        </mxCell>
        <mxCell id="9bxFDCF_LwELI03r26Da-46" style="shape=tableRow;horizontal=0;startSize=0;swimlaneHead=0;swimlaneBody=0;fillColor=none;collapsible=0;dropTarget=0;points=[[0,0.5],[1,0.5]];portConstraint=eastwest;top=0;left=0;right=0;bottom=0;" vertex="1" parent="9bxFDCF_LwELI03r26Da-39">
          <mxGeometry y="69" width="175" height="22" as="geometry" />
        </mxCell>
        <mxCell id="9bxFDCF_LwELI03r26Da-47" value="integer" style="shape=partialRectangle;connectable=0;fillColor=none;top=0;left=0;bottom=0;right=0;align=left;spacingLeft=2;overflow=hidden;fontSize=11;" vertex="1" parent="9bxFDCF_LwELI03r26Da-46">
          <mxGeometry width="42" height="22" as="geometry">
            <mxRectangle width="42" height="22" as="alternateBounds" />
          </mxGeometry>
        </mxCell>
        <mxCell id="9bxFDCF_LwELI03r26Da-48" value="waypoint_destino_id" style="shape=partialRectangle;connectable=0;fillColor=none;top=0;left=0;bottom=0;right=0;align=left;spacingLeft=2;overflow=hidden;fontSize=11;" vertex="1" parent="9bxFDCF_LwELI03r26Da-46">
          <mxGeometry x="42" width="133" height="22" as="geometry">
            <mxRectangle width="133" height="22" as="alternateBounds" />
          </mxGeometry>
        </mxCell>
        <mxCell id="9bxFDCF_LwELI03r26Da-49" style="shape=tableRow;horizontal=0;startSize=0;swimlaneHead=0;swimlaneBody=0;fillColor=none;collapsible=0;dropTarget=0;points=[[0,0.5],[1,0.5]];portConstraint=eastwest;top=0;left=0;right=0;bottom=0;" vertex="1" parent="9bxFDCF_LwELI03r26Da-39">
          <mxGeometry y="91" width="175" height="22" as="geometry" />
        </mxCell>
        <mxCell id="9bxFDCF_LwELI03r26Da-50" value="numeric" style="shape=partialRectangle;connectable=0;fillColor=none;top=0;left=0;bottom=0;right=0;align=left;spacingLeft=2;overflow=hidden;fontSize=11;" vertex="1" parent="9bxFDCF_LwELI03r26Da-49">
          <mxGeometry width="42" height="22" as="geometry">
            <mxRectangle width="42" height="22" as="alternateBounds" />
          </mxGeometry>
        </mxCell>
        <mxCell id="9bxFDCF_LwELI03r26Da-51" value="distancia" style="shape=partialRectangle;connectable=0;fillColor=none;top=0;left=0;bottom=0;right=0;align=left;spacingLeft=2;overflow=hidden;fontSize=11;" vertex="1" parent="9bxFDCF_LwELI03r26Da-49">
          <mxGeometry x="42" width="133" height="22" as="geometry">
            <mxRectangle width="133" height="22" as="alternateBounds" />
          </mxGeometry>
        </mxCell>
        <mxCell id="9bxFDCF_LwELI03r26Da-52" value="destinos" style="shape=table;startSize=25;container=1;collapsible=0;childLayout=tableLayout;fixedRows=1;rowLines=1;fontStyle=1;align=center;resizeLast=1;" vertex="1" parent="1">
          <mxGeometry x="20" y="812" width="179" height="157" as="geometry" />
        </mxCell>
        <mxCell id="9bxFDCF_LwELI03r26Da-53" style="shape=tableRow;horizontal=0;startSize=0;swimlaneHead=0;swimlaneBody=0;fillColor=none;collapsible=0;dropTarget=0;points=[[0,0.5],[1,0.5]];portConstraint=eastwest;top=0;left=0;right=0;bottom=0;" vertex="1" parent="9bxFDCF_LwELI03r26Da-52">
          <mxGeometry y="25" width="179" height="22" as="geometry" />
        </mxCell>
        <mxCell id="9bxFDCF_LwELI03r26Da-54" value="integer" style="shape=partialRectangle;connectable=0;fillColor=none;top=0;left=0;bottom=0;right=0;align=left;spacingLeft=2;overflow=hidden;fontSize=11;" vertex="1" parent="9bxFDCF_LwELI03r26Da-53">
          <mxGeometry width="42" height="22" as="geometry">
            <mxRectangle width="42" height="22" as="alternateBounds" />
          </mxGeometry>
        </mxCell>
        <mxCell id="9bxFDCF_LwELI03r26Da-55" value="id" style="shape=partialRectangle;connectable=0;fillColor=none;top=0;left=0;bottom=0;right=0;align=left;spacingLeft=2;overflow=hidden;fontSize=11;" vertex="1" parent="9bxFDCF_LwELI03r26Da-53">
          <mxGeometry x="42" width="137" height="22" as="geometry">
            <mxRectangle width="137" height="22" as="alternateBounds" />
          </mxGeometry>
        </mxCell>
        <mxCell id="9bxFDCF_LwELI03r26Da-56" style="shape=tableRow;horizontal=0;startSize=0;swimlaneHead=0;swimlaneBody=0;fillColor=none;collapsible=0;dropTarget=0;points=[[0,0.5],[1,0.5]];portConstraint=eastwest;top=0;left=0;right=0;bottom=0;" vertex="1" parent="9bxFDCF_LwELI03r26Da-52">
          <mxGeometry y="47" width="179" height="22" as="geometry" />
        </mxCell>
        <mxCell id="9bxFDCF_LwELI03r26Da-57" value="varchar" style="shape=partialRectangle;connectable=0;fillColor=none;top=0;left=0;bottom=0;right=0;align=left;spacingLeft=2;overflow=hidden;fontSize=11;" vertex="1" parent="9bxFDCF_LwELI03r26Da-56">
          <mxGeometry width="42" height="22" as="geometry">
            <mxRectangle width="42" height="22" as="alternateBounds" />
          </mxGeometry>
        </mxCell>
        <mxCell id="9bxFDCF_LwELI03r26Da-58" value="nome" style="shape=partialRectangle;connectable=0;fillColor=none;top=0;left=0;bottom=0;right=0;align=left;spacingLeft=2;overflow=hidden;fontSize=11;" vertex="1" parent="9bxFDCF_LwELI03r26Da-56">
          <mxGeometry x="42" width="137" height="22" as="geometry">
            <mxRectangle width="137" height="22" as="alternateBounds" />
          </mxGeometry>
        </mxCell>
        <mxCell id="9bxFDCF_LwELI03r26Da-59" style="shape=tableRow;horizontal=0;startSize=0;swimlaneHead=0;swimlaneBody=0;fillColor=none;collapsible=0;dropTarget=0;points=[[0,0.5],[1,0.5]];portConstraint=eastwest;top=0;left=0;right=0;bottom=0;" vertex="1" parent="9bxFDCF_LwELI03r26Da-52">
          <mxGeometry y="69" width="179" height="22" as="geometry" />
        </mxCell>
        <mxCell id="9bxFDCF_LwELI03r26Da-60" value="text" style="shape=partialRectangle;connectable=0;fillColor=none;top=0;left=0;bottom=0;right=0;align=left;spacingLeft=2;overflow=hidden;fontSize=11;" vertex="1" parent="9bxFDCF_LwELI03r26Da-59">
          <mxGeometry width="42" height="22" as="geometry">
            <mxRectangle width="42" height="22" as="alternateBounds" />
          </mxGeometry>
        </mxCell>
        <mxCell id="9bxFDCF_LwELI03r26Da-61" value="descricao" style="shape=partialRectangle;connectable=0;fillColor=none;top=0;left=0;bottom=0;right=0;align=left;spacingLeft=2;overflow=hidden;fontSize=11;" vertex="1" parent="9bxFDCF_LwELI03r26Da-59">
          <mxGeometry x="42" width="137" height="22" as="geometry">
            <mxRectangle width="137" height="22" as="alternateBounds" />
          </mxGeometry>
        </mxCell>
        <mxCell id="9bxFDCF_LwELI03r26Da-62" style="shape=tableRow;horizontal=0;startSize=0;swimlaneHead=0;swimlaneBody=0;fillColor=none;collapsible=0;dropTarget=0;points=[[0,0.5],[1,0.5]];portConstraint=eastwest;top=0;left=0;right=0;bottom=0;" vertex="1" parent="9bxFDCF_LwELI03r26Da-52">
          <mxGeometry y="91" width="179" height="22" as="geometry" />
        </mxCell>
        <mxCell id="9bxFDCF_LwELI03r26Da-63" value="integer" style="shape=partialRectangle;connectable=0;fillColor=none;top=0;left=0;bottom=0;right=0;align=left;spacingLeft=2;overflow=hidden;fontSize=11;" vertex="1" parent="9bxFDCF_LwELI03r26Da-62">
          <mxGeometry width="42" height="22" as="geometry">
            <mxRectangle width="42" height="22" as="alternateBounds" />
          </mxGeometry>
        </mxCell>
        <mxCell id="9bxFDCF_LwELI03r26Da-64" value="waypoint_id" style="shape=partialRectangle;connectable=0;fillColor=none;top=0;left=0;bottom=0;right=0;align=left;spacingLeft=2;overflow=hidden;fontSize=11;" vertex="1" parent="9bxFDCF_LwELI03r26Da-62">
          <mxGeometry x="42" width="137" height="22" as="geometry">
            <mxRectangle width="137" height="22" as="alternateBounds" />
          </mxGeometry>
        </mxCell>
        <mxCell id="9bxFDCF_LwELI03r26Da-65" style="shape=tableRow;horizontal=0;startSize=0;swimlaneHead=0;swimlaneBody=0;fillColor=none;collapsible=0;dropTarget=0;points=[[0,0.5],[1,0.5]];portConstraint=eastwest;top=0;left=0;right=0;bottom=0;" vertex="1" parent="9bxFDCF_LwELI03r26Da-52">
          <mxGeometry y="113" width="179" height="22" as="geometry" />
        </mxCell>
        <mxCell id="9bxFDCF_LwELI03r26Da-66" value="varchar" style="shape=partialRectangle;connectable=0;fillColor=none;top=0;left=0;bottom=0;right=0;align=left;spacingLeft=2;overflow=hidden;fontSize=11;" vertex="1" parent="9bxFDCF_LwELI03r26Da-65">
          <mxGeometry width="42" height="22" as="geometry">
            <mxRectangle width="42" height="22" as="alternateBounds" />
          </mxGeometry>
        </mxCell>
        <mxCell id="9bxFDCF_LwELI03r26Da-67" value="tipo" style="shape=partialRectangle;connectable=0;fillColor=none;top=0;left=0;bottom=0;right=0;align=left;spacingLeft=2;overflow=hidden;fontSize=11;" vertex="1" parent="9bxFDCF_LwELI03r26Da-65">
          <mxGeometry x="42" width="137" height="22" as="geometry">
            <mxRectangle width="137" height="22" as="alternateBounds" />
          </mxGeometry>
        </mxCell>
        <mxCell id="9bxFDCF_LwELI03r26Da-68" style="shape=tableRow;horizontal=0;startSize=0;swimlaneHead=0;swimlaneBody=0;fillColor=none;collapsible=0;dropTarget=0;points=[[0,0.5],[1,0.5]];portConstraint=eastwest;top=0;left=0;right=0;bottom=0;" vertex="1" parent="9bxFDCF_LwELI03r26Da-52">
          <mxGeometry y="135" width="179" height="22" as="geometry" />
        </mxCell>
        <mxCell id="9bxFDCF_LwELI03r26Da-69" value="varchar" style="shape=partialRectangle;connectable=0;fillColor=none;top=0;left=0;bottom=0;right=0;align=left;spacingLeft=2;overflow=hidden;fontSize=11;" vertex="1" parent="9bxFDCF_LwELI03r26Da-68">
          <mxGeometry width="42" height="22" as="geometry">
            <mxRectangle width="42" height="22" as="alternateBounds" />
          </mxGeometry>
        </mxCell>
        <mxCell id="9bxFDCF_LwELI03r26Da-70" value="horariofuncionamento" style="shape=partialRectangle;connectable=0;fillColor=none;top=0;left=0;bottom=0;right=0;align=left;spacingLeft=2;overflow=hidden;fontSize=11;" vertex="1" parent="9bxFDCF_LwELI03r26Da-68">
          <mxGeometry x="42" width="137" height="22" as="geometry">
            <mxRectangle width="137" height="22" as="alternateBounds" />
          </mxGeometry>
        </mxCell>
        <mxCell id="9bxFDCF_LwELI03r26Da-71" value="waypoints" style="shape=table;startSize=25;container=1;collapsible=0;childLayout=tableLayout;fixedRows=1;rowLines=1;fontStyle=1;align=center;resizeLast=1;" vertex="1" parent="1">
          <mxGeometry x="175" y="533" width="147" height="179" as="geometry" />
        </mxCell>
        <mxCell id="9bxFDCF_LwELI03r26Da-72" style="shape=tableRow;horizontal=0;startSize=0;swimlaneHead=0;swimlaneBody=0;fillColor=none;collapsible=0;dropTarget=0;points=[[0,0.5],[1,0.5]];portConstraint=eastwest;top=0;left=0;right=0;bottom=0;" vertex="1" parent="9bxFDCF_LwELI03r26Da-71">
          <mxGeometry y="25" width="147" height="22" as="geometry" />
        </mxCell>
        <mxCell id="9bxFDCF_LwELI03r26Da-73" value="integer" style="shape=partialRectangle;connectable=0;fillColor=none;top=0;left=0;bottom=0;right=0;align=left;spacingLeft=2;overflow=hidden;fontSize=11;" vertex="1" parent="9bxFDCF_LwELI03r26Da-72">
          <mxGeometry width="54" height="22" as="geometry">
            <mxRectangle width="54" height="22" as="alternateBounds" />
          </mxGeometry>
        </mxCell>
        <mxCell id="9bxFDCF_LwELI03r26Da-74" value="id" style="shape=partialRectangle;connectable=0;fillColor=none;top=0;left=0;bottom=0;right=0;align=left;spacingLeft=2;overflow=hidden;fontSize=11;" vertex="1" parent="9bxFDCF_LwELI03r26Da-72">
          <mxGeometry x="54" width="93" height="22" as="geometry">
            <mxRectangle width="93" height="22" as="alternateBounds" />
          </mxGeometry>
        </mxCell>
        <mxCell id="9bxFDCF_LwELI03r26Da-75" style="shape=tableRow;horizontal=0;startSize=0;swimlaneHead=0;swimlaneBody=0;fillColor=none;collapsible=0;dropTarget=0;points=[[0,0.5],[1,0.5]];portConstraint=eastwest;top=0;left=0;right=0;bottom=0;" vertex="1" parent="9bxFDCF_LwELI03r26Da-71">
          <mxGeometry y="47" width="147" height="22" as="geometry" />
        </mxCell>
        <mxCell id="9bxFDCF_LwELI03r26Da-76" value="varchar" style="shape=partialRectangle;connectable=0;fillColor=none;top=0;left=0;bottom=0;right=0;align=left;spacingLeft=2;overflow=hidden;fontSize=11;" vertex="1" parent="9bxFDCF_LwELI03r26Da-75">
          <mxGeometry width="54" height="22" as="geometry">
            <mxRectangle width="54" height="22" as="alternateBounds" />
          </mxGeometry>
        </mxCell>
        <mxCell id="9bxFDCF_LwELI03r26Da-77" value="nome" style="shape=partialRectangle;connectable=0;fillColor=none;top=0;left=0;bottom=0;right=0;align=left;spacingLeft=2;overflow=hidden;fontSize=11;" vertex="1" parent="9bxFDCF_LwELI03r26Da-75">
          <mxGeometry x="54" width="93" height="22" as="geometry">
            <mxRectangle width="93" height="22" as="alternateBounds" />
          </mxGeometry>
        </mxCell>
        <mxCell id="9bxFDCF_LwELI03r26Da-78" style="shape=tableRow;horizontal=0;startSize=0;swimlaneHead=0;swimlaneBody=0;fillColor=none;collapsible=0;dropTarget=0;points=[[0,0.5],[1,0.5]];portConstraint=eastwest;top=0;left=0;right=0;bottom=0;" vertex="1" parent="9bxFDCF_LwELI03r26Da-71">
          <mxGeometry y="69" width="147" height="22" as="geometry" />
        </mxCell>
        <mxCell id="9bxFDCF_LwELI03r26Da-79" value="text" style="shape=partialRectangle;connectable=0;fillColor=none;top=0;left=0;bottom=0;right=0;align=left;spacingLeft=2;overflow=hidden;fontSize=11;" vertex="1" parent="9bxFDCF_LwELI03r26Da-78">
          <mxGeometry width="54" height="22" as="geometry">
            <mxRectangle width="54" height="22" as="alternateBounds" />
          </mxGeometry>
        </mxCell>
        <mxCell id="9bxFDCF_LwELI03r26Da-80" value="descricao" style="shape=partialRectangle;connectable=0;fillColor=none;top=0;left=0;bottom=0;right=0;align=left;spacingLeft=2;overflow=hidden;fontSize=11;" vertex="1" parent="9bxFDCF_LwELI03r26Da-78">
          <mxGeometry x="54" width="93" height="22" as="geometry">
            <mxRectangle width="93" height="22" as="alternateBounds" />
          </mxGeometry>
        </mxCell>
        <mxCell id="9bxFDCF_LwELI03r26Da-81" style="shape=tableRow;horizontal=0;startSize=0;swimlaneHead=0;swimlaneBody=0;fillColor=none;collapsible=0;dropTarget=0;points=[[0,0.5],[1,0.5]];portConstraint=eastwest;top=0;left=0;right=0;bottom=0;" vertex="1" parent="9bxFDCF_LwELI03r26Da-71">
          <mxGeometry y="91" width="147" height="22" as="geometry" />
        </mxCell>
        <mxCell id="9bxFDCF_LwELI03r26Da-82" value="varchar" style="shape=partialRectangle;connectable=0;fillColor=none;top=0;left=0;bottom=0;right=0;align=left;spacingLeft=2;overflow=hidden;fontSize=11;" vertex="1" parent="9bxFDCF_LwELI03r26Da-81">
          <mxGeometry width="54" height="22" as="geometry">
            <mxRectangle width="54" height="22" as="alternateBounds" />
          </mxGeometry>
        </mxCell>
        <mxCell id="9bxFDCF_LwELI03r26Da-83" value="tipo" style="shape=partialRectangle;connectable=0;fillColor=none;top=0;left=0;bottom=0;right=0;align=left;spacingLeft=2;overflow=hidden;fontSize=11;" vertex="1" parent="9bxFDCF_LwELI03r26Da-81">
          <mxGeometry x="54" width="93" height="22" as="geometry">
            <mxRectangle width="93" height="22" as="alternateBounds" />
          </mxGeometry>
        </mxCell>
        <mxCell id="9bxFDCF_LwELI03r26Da-84" style="shape=tableRow;horizontal=0;startSize=0;swimlaneHead=0;swimlaneBody=0;fillColor=none;collapsible=0;dropTarget=0;points=[[0,0.5],[1,0.5]];portConstraint=eastwest;top=0;left=0;right=0;bottom=0;" vertex="1" parent="9bxFDCF_LwELI03r26Da-71">
          <mxGeometry y="113" width="147" height="22" as="geometry" />
        </mxCell>
        <mxCell id="9bxFDCF_LwELI03r26Da-85" value="integer" style="shape=partialRectangle;connectable=0;fillColor=none;top=0;left=0;bottom=0;right=0;align=left;spacingLeft=2;overflow=hidden;fontSize=11;" vertex="1" parent="9bxFDCF_LwELI03r26Da-84">
          <mxGeometry width="54" height="22" as="geometry">
            <mxRectangle width="54" height="22" as="alternateBounds" />
          </mxGeometry>
        </mxCell>
        <mxCell id="9bxFDCF_LwELI03r26Da-86" value="bloco_id" style="shape=partialRectangle;connectable=0;fillColor=none;top=0;left=0;bottom=0;right=0;align=left;spacingLeft=2;overflow=hidden;fontSize=11;" vertex="1" parent="9bxFDCF_LwELI03r26Da-84">
          <mxGeometry x="54" width="93" height="22" as="geometry">
            <mxRectangle width="93" height="22" as="alternateBounds" />
          </mxGeometry>
        </mxCell>
        <mxCell id="9bxFDCF_LwELI03r26Da-87" style="shape=tableRow;horizontal=0;startSize=0;swimlaneHead=0;swimlaneBody=0;fillColor=none;collapsible=0;dropTarget=0;points=[[0,0.5],[1,0.5]];portConstraint=eastwest;top=0;left=0;right=0;bottom=0;" vertex="1" parent="9bxFDCF_LwELI03r26Da-71">
          <mxGeometry y="135" width="147" height="22" as="geometry" />
        </mxCell>
        <mxCell id="9bxFDCF_LwELI03r26Da-88" value="integer" style="shape=partialRectangle;connectable=0;fillColor=none;top=0;left=0;bottom=0;right=0;align=left;spacingLeft=2;overflow=hidden;fontSize=11;" vertex="1" parent="9bxFDCF_LwELI03r26Da-87">
          <mxGeometry width="54" height="22" as="geometry">
            <mxRectangle width="54" height="22" as="alternateBounds" />
          </mxGeometry>
        </mxCell>
        <mxCell id="9bxFDCF_LwELI03r26Da-89" value="andar_id" style="shape=partialRectangle;connectable=0;fillColor=none;top=0;left=0;bottom=0;right=0;align=left;spacingLeft=2;overflow=hidden;fontSize=11;" vertex="1" parent="9bxFDCF_LwELI03r26Da-87">
          <mxGeometry x="54" width="93" height="22" as="geometry">
            <mxRectangle width="93" height="22" as="alternateBounds" />
          </mxGeometry>
        </mxCell>
        <mxCell id="9bxFDCF_LwELI03r26Da-90" style="shape=tableRow;horizontal=0;startSize=0;swimlaneHead=0;swimlaneBody=0;fillColor=none;collapsible=0;dropTarget=0;points=[[0,0.5],[1,0.5]];portConstraint=eastwest;top=0;left=0;right=0;bottom=0;" vertex="1" parent="9bxFDCF_LwELI03r26Da-71">
          <mxGeometry y="157" width="147" height="22" as="geometry" />
        </mxCell>
        <mxCell id="9bxFDCF_LwELI03r26Da-91" value="geography" style="shape=partialRectangle;connectable=0;fillColor=none;top=0;left=0;bottom=0;right=0;align=left;spacingLeft=2;overflow=hidden;fontSize=11;" vertex="1" parent="9bxFDCF_LwELI03r26Da-90">
          <mxGeometry width="54" height="22" as="geometry">
            <mxRectangle width="54" height="22" as="alternateBounds" />
          </mxGeometry>
        </mxCell>
        <mxCell id="9bxFDCF_LwELI03r26Da-92" value="coordenadas" style="shape=partialRectangle;connectable=0;fillColor=none;top=0;left=0;bottom=0;right=0;align=left;spacingLeft=2;overflow=hidden;fontSize=11;" vertex="1" parent="9bxFDCF_LwELI03r26Da-90">
          <mxGeometry x="54" width="93" height="22" as="geometry">
            <mxRectangle width="93" height="22" as="alternateBounds" />
          </mxGeometry>
        </mxCell>
        <mxCell id="9bxFDCF_LwELI03r26Da-93" value="possui" style="curved=1;startArrow=ERmandOne;startSize=10;;endArrow=ERmany;endSize=10;;exitX=0.9;exitY=1;entryX=0.5;entryY=0;rounded=0;" edge="1" parent="1" source="9bxFDCF_LwELI03r26Da-23" target="9bxFDCF_LwELI03r26Da-1">
          <mxGeometry relative="1" as="geometry">
            <Array as="points">
              <mxPoint x="333" y="204" />
            </Array>
          </mxGeometry>
        </mxCell>
        <mxCell id="9bxFDCF_LwELI03r26Da-94" value="possui" style="curved=1;startArrow=ERmandOne;startSize=10;;endArrow=ERmany;endSize=10;;exitX=0.1;exitY=1;entryX=0.13;entryY=0;rounded=0;" edge="1" parent="1" source="9bxFDCF_LwELI03r26Da-23" target="9bxFDCF_LwELI03r26Da-71">
          <mxGeometry relative="1" as="geometry">
            <Array as="points">
              <mxPoint x="163" y="204" />
              <mxPoint x="163" y="483" />
            </Array>
          </mxGeometry>
        </mxCell>
        <mxCell id="9bxFDCF_LwELI03r26Da-95" value="possui" style="curved=1;startArrow=ERmandOne;startSize=10;;endArrow=ERmany;endSize=10;;exitX=0.5;exitY=1;entryX=0.87;entryY=0;rounded=0;" edge="1" parent="1" source="9bxFDCF_LwELI03r26Da-1" target="9bxFDCF_LwELI03r26Da-71">
          <mxGeometry relative="1" as="geometry">
            <Array as="points">
              <mxPoint x="333" y="483" />
            </Array>
          </mxGeometry>
        </mxCell>
        <mxCell id="9bxFDCF_LwELI03r26Da-96" value="local de" style="curved=1;startArrow=ERmandOne;startSize=10;;endArrow=ERmany;endSize=10;;exitX=0;exitY=0.92;entryX=0.5;entryY=0;rounded=0;" edge="1" parent="1" source="9bxFDCF_LwELI03r26Da-71" target="9bxFDCF_LwELI03r26Da-52">
          <mxGeometry relative="1" as="geometry">
            <Array as="points">
              <mxPoint x="110" y="762" />
            </Array>
          </mxGeometry>
        </mxCell>
        <mxCell id="9bxFDCF_LwELI03r26Da-97" value="origem/destino" style="curved=1;startArrow=ERmandOne;startSize=10;;endArrow=ERmany;endSize=10;;exitX=1;exitY=0.92;entryX=0.5;entryY=0;rounded=0;" edge="1" parent="1" source="9bxFDCF_LwELI03r26Da-71" target="9bxFDCF_LwELI03r26Da-39">
          <mxGeometry relative="1" as="geometry">
            <Array as="points">
              <mxPoint x="387" y="762" />
            </Array>
          </mxGeometry>
        </mxCell>
      </root>
    </mxGraphModel>
  </diagram>
</mxfile>
